<svg width="23" height="26" viewBox="0 0 23 26" fill="none" xmlns="http://www.w3.org/2000/svg">
<g clip-path="url(#clip0_9033_40232)">
<path d="M11 20.7696C10.5875 20.7696 10.2344 20.6226 9.94075 20.3288C9.64692 20.0351 9.5 19.6821 9.5 19.2696C9.5 18.8571 9.64692 18.5039 9.94075 18.2101C10.2344 17.9164 10.5875 17.7696 11 17.7696C11.4125 17.7696 11.7656 17.9164 12.0593 18.2101C12.3531 18.5039 12.5 18.8571 12.5 19.2696C12.5 19.6821 12.3531 20.0351 12.0593 20.3288C11.7656 20.6226 11.4125 20.7696 11 20.7696ZM11 15C10.5875 15 10.2344 14.8531 9.94075 14.5592C9.64692 14.2656 9.5 13.9125 9.5 13.5C9.5 13.0875 9.64692 12.7344 9.94075 12.4407C10.2344 12.1469 10.5875 12 11 12C11.4125 12 11.7656 12.1469 12.0593 12.4407C12.3531 12.7344 12.5 13.0875 12.5 13.5C12.5 13.9125 12.3531 14.2656 12.0593 14.5592C11.7656 14.8531 11.4125 15 11 15ZM11 9.23047C10.5875 9.23047 10.2344 9.08364 9.94075 8.78997C9.64692 8.49614 9.5 8.14297 9.5 7.73047C9.5 7.31797 9.64692 6.96488 9.94075 6.67122C10.2344 6.37738 10.5875 6.23047 11 6.23047C11.4125 6.23047 11.7656 6.37738 12.0593 6.67122C12.3531 6.96488 12.5 7.31797 12.5 7.73047C12.5 8.14297 12.3531 8.49614 12.0593 8.78997C11.7656 9.08364 11.4125 9.23047 11 9.23047Z" fill="#4B65E1"/>
</g>
<defs>
<clipPath id="clip0_9033_40232">
<rect width="23" height="24.539" fill="white" transform="translate(0 0.730469)"/>
</clipPath>
</defs>
</svg>
