<svg width="18" height="20" viewBox="0 0 18 20" fill="none" xmlns="http://www.w3.org/2000/svg">
    <path
        d="M11.6923 16.1484C11.0499 16.1484 10.5048 15.9244 10.0568 15.4764C9.60875 15.0283 9.38475 14.483 9.38475 13.8407C9.38475 13.1984 9.60875 12.6532 10.0568 12.2052C10.5048 11.7572 11.0499 11.5332 11.6923 11.5332C12.3346 11.5332 12.8798 11.7572 13.328 12.2052C13.776 12.6532 14 13.1984 14 13.8407C14 14.483 13.776 15.0283 13.328 15.4764C12.8798 15.9244 12.3346 16.1484 11.6923 16.1484ZM2.30775 19.6484C1.80258 19.6484 1.375 19.4734 1.025 19.1235C0.675 18.7734 0.5 18.3459 0.5 17.8407V4.4562C0.5 3.95103 0.675 3.52345 1.025 3.17345C1.375 2.82345 1.80258 2.64845 2.30775 2.64845H3.69225V0.533203H5.23075V2.64845H12.8078V0.533203H14.3078V2.64845H15.6922C16.1974 2.64845 16.625 2.82345 16.975 3.17345C17.325 3.52345 17.5 3.95103 17.5 4.4562V17.8407C17.5 18.3459 17.325 18.7734 16.975 19.1235C16.625 19.4734 16.1974 19.6484 15.6922 19.6484H2.30775ZM2.30775 18.1483H15.6922C15.7693 18.1483 15.8398 18.1162 15.9038 18.0521C15.9679 17.9881 16 17.9175 16 17.8406V8.45605H2V17.8406C2 17.9176 2.03208 17.9881 2.09625 18.0521C2.16025 18.1162 2.23075 18.1483 2.30775 18.1483ZM2 6.95618H16V4.45618C16 4.37918 15.9679 4.30868 15.9038 4.24468C15.8398 4.18052 15.7693 4.14843 15.6922 4.14843H2.30775C2.23075 4.14843 2.16025 4.18052 2.09625 4.24468C2.03208 4.30868 2 4.37918 2 4.45618V6.95618Z"
        fill="#434343" />
</svg>