<svg width="24" height="24" viewBox="0 0 24 24" fill="none" xmlns="http://www.w3.org/2000/svg">
<path d="M12 13.7653C12.4858 13.7653 12.899 13.5952 13.2395 13.2548C13.5798 12.9143 13.75 12.5012 13.75 12.0153C13.75 11.5295 13.5798 11.1163 13.2395 10.7758C12.899 10.4355 12.4858 10.2653 12 10.2653C11.5142 10.2653 11.101 10.4355 10.7605 10.7758C10.4202 11.1163 10.25 11.5295 10.25 12.0153C10.25 12.5012 10.4202 12.9143 10.7605 13.2548C11.101 13.5952 11.5142 13.7653 12 13.7653ZM8.25 17.4576H15.75V17.0941C15.75 16.7389 15.6545 16.4236 15.4635 16.1481C15.2725 15.8724 15.0109 15.6608 14.6788 15.5133C14.2648 15.3365 13.835 15.1997 13.3895 15.1028C12.944 15.006 12.4808 14.9576 12 14.9576C11.5192 14.9576 11.056 15.006 10.6105 15.1028C10.165 15.1997 9.73525 15.3365 9.32125 15.5133C8.98908 15.6608 8.7275 15.8724 8.5365 16.1481C8.3455 16.4236 8.25 16.7389 8.25 17.0941V17.4576ZM17.6923 21.4961H6.30775C5.80258 21.4961 5.375 21.3211 5.025 20.9711C4.675 20.6211 4.5 20.1935 4.5 19.6883V4.30384C4.5 3.79868 4.675 3.37109 5.025 3.02109C5.375 2.67109 5.80258 2.49609 6.30775 2.49609H13.7885L19.5 8.20759V19.6883C19.5 20.1935 19.325 20.6211 18.975 20.9711C18.625 21.3211 18.1974 21.4961 17.6923 21.4961ZM17.6923 19.9961C17.7692 19.9961 17.8398 19.964 17.9038 19.8998C17.9679 19.8358 18 19.7653 18 19.6883V8.84609L13.15 3.99609H6.30775C6.23075 3.99609 6.16025 4.02818 6.09625 4.09234C6.03208 4.15634 6 4.22684 6 4.30384V19.6883C6 19.7653 6.03208 19.8358 6.09625 19.8998C6.16025 19.964 6.23075 19.9961 6.30775 19.9961H17.6923Z" fill="#6E7174"/>
</svg>
