<svg width="24" height="24" viewBox="0 0 24 24" fill="none" xmlns="http://www.w3.org/2000/svg">
<g clip-path="url(#clip0_7204_60100)">
<path d="M18.25 6H15.925C15.751 5.1536 15.29 4.393 14.621 3.8465C13.952 3.3001 13.114 3.0011 12.25 3H10.75C9.88599 3.0011 9.04799 3.3001 8.379 3.8465C7.70999 4.393 7.24899 5.1536 7.075 6H4.75C4.55099 6 4.35998 6.079 4.21999 6.2197C4.07899 6.3603 4 6.5511 4 6.75C4 6.9489 4.07899 7.1397 4.21999 7.2803C4.35998 7.421 4.55099 7.5 4.75 7.5H5.5V17.25C5.50099 18.2442 5.89699 19.1973 6.59999 19.9003C7.30299 20.6033 8.256 20.9988 9.25 21H13.75C14.744 20.9988 15.697 20.6033 16.4 19.9003C17.103 19.1973 17.499 18.2442 17.5 17.25V7.5H18.25C18.449 7.5 18.64 7.421 18.78 7.2803C18.921 7.1397 19 6.9489 19 6.75C19 6.5511 18.921 6.3603 18.78 6.2197C18.64 6.079 18.449 6 18.25 6ZM10.7499 4.5H12.2499C12.7149 4.5006 13.1689 4.645 13.5489 4.9136C13.9289 5.1821 14.2159 5.5616 14.3719 6H8.62793C8.78394 5.5616 9.07094 5.1821 9.45093 4.9136C9.83093 4.645 10.2849 4.5006 10.7499 4.5ZM16 17.25C16 17.8467 15.763 18.419 15.341 18.841C14.919 19.2629 14.347 19.5 13.75 19.5H9.25C8.653 19.5 8.08099 19.2629 7.659 18.841C7.237 18.419 7 17.8467 7 17.25V7.5H16V17.25Z" fill="#4B65E1"/>
<path fill-rule="evenodd" clip-rule="evenodd" d="M10.166 16.6667C10.387 16.6667 10.599 16.5789 10.756 16.4226C10.912 16.2663 11 16.0543 11 15.8333V10.8333C11 10.6123 10.912 10.4004 10.756 10.2441C10.599 10.0878 10.387 10 10.166 10C9.94501 10 9.733 10.0878 9.57701 10.2441C9.42101 10.4004 9.33301 10.6123 9.33301 10.8333V15.8333C9.33301 16.0543 9.42101 16.2663 9.57701 16.4226C9.733 16.5789 9.94501 16.6667 10.166 16.6667Z" fill="#4B65E1"/>
<path fill-rule="evenodd" clip-rule="evenodd" d="M13.5 16.6667C13.721 16.6667 13.933 16.5789 14.09 16.4226C14.246 16.2663 14.334 16.0543 14.334 15.8333V10.8333C14.334 10.6123 14.246 10.4004 14.09 10.2441C13.933 10.0878 13.721 10 13.5 10C13.279 10 13.067 10.0878 12.911 10.2441C12.755 10.4004 12.667 10.6123 12.667 10.8333V15.8333C12.667 16.0543 12.755 16.2663 12.911 16.4226C13.067 16.5789 13.279 16.6667 13.5 16.6667Z" fill="#4B65E1"/>
</g>
<defs>
<clipPath id="clip0_7204_60100">
<rect width="24" height="24" fill="white"/>
</clipPath>
</defs>
</svg>
