<svg width="29" height="29" viewBox="0 0 29 29" fill="none" xmlns="http://www.w3.org/2000/svg">
<mask id="mask0_10049_20093" style="mask-type:luminance" maskUnits="userSpaceOnUse" x="0" y="0" width="29" height="29">
<path d="M28.7647 0.353516H0.529419V28.5888H28.7647V0.353516Z" fill="white"/>
</mask>
<g mask="url(#mask0_10049_20093)">
<path d="M17.6914 21.2825L12.6688 16.2599L13.9088 14.984L16.8091 17.8843V8.00195H18.5738V17.8843L21.4741 14.984L22.7141 16.2599L17.6914 21.2825ZM10.995 25.649C10.4007 25.649 9.89764 25.4431 9.48587 25.0314C9.07411 24.6196 8.86823 24.1165 8.86823 23.5223V20.3323H10.6329V23.5223C10.6329 23.6129 10.6707 23.6958 10.7462 23.7711C10.8215 23.8465 10.9044 23.8843 10.995 23.8843H24.3885C24.4792 23.8843 24.5621 23.8465 24.6374 23.7711C24.7128 23.6958 24.7506 23.6129 24.7506 23.5223V20.3323H26.5153V23.5223C26.5153 24.1165 26.3094 24.6196 25.8976 25.0314C25.4859 25.4431 24.9828 25.649 24.3885 25.649H10.995Z" fill="#434343"/>
</g>
</svg>
