<svg width="18" height="18" viewBox="0 0 18 18" fill="none" xmlns="http://www.w3.org/2000/svg">
<mask id="path-1-inside-1_9033_40228" fill="white">
<path d="M9.16097 17.5204L9.15146 17.5221L9.09006 17.5524L9.07276 17.5558L9.06065 17.5524L8.99925 17.5221C8.99003 17.5192 8.98311 17.5207 8.9785 17.5264L8.97504 17.5351L8.96034 17.9052L8.96466 17.9225L8.97331 17.9337L9.06325 17.9977L9.07622 18.0012L9.0866 17.9977L9.17654 17.9337L9.18691 17.9199L9.19037 17.9052L9.17567 17.5359C9.17337 17.5267 9.16847 17.5215 9.16097 17.5204ZM9.39014 17.4226L9.3789 17.4244L9.21891 17.5048L9.21026 17.5135L9.20767 17.523L9.22324 17.8948L9.22756 17.9052L9.23448 17.9113L9.4083 17.9917C9.41926 17.9946 9.42762 17.9923 9.43338 17.9848L9.43684 17.9727L9.40744 17.4417C9.40456 17.4313 9.39879 17.425 9.39014 17.4226ZM8.77181 17.4244C8.768 17.4221 8.76344 17.4213 8.75909 17.4223C8.75474 17.4233 8.75093 17.4259 8.74846 17.4296L8.74327 17.4417L8.71387 17.9727C8.71444 17.983 8.71934 17.99 8.72857 17.9934L8.74154 17.9917L8.91537 17.9113L8.92401 17.9043L8.92747 17.8948L8.94218 17.523L8.93958 17.5126L8.93093 17.5039L8.77181 17.4244Z"/>
</mask>
<path d="M9.16097 17.5204L9.31303 16.532L9.14715 16.5065L8.98202 16.5365L9.16097 17.5204ZM9.15146 17.5221L8.97251 16.5382L8.83483 16.5633L8.70931 16.6252L9.15146 17.5221ZM9.09006 17.5524L9.28616 18.533L9.41467 18.5073L9.53221 18.4493L9.09006 17.5524ZM9.07276 17.5558L8.79806 18.5174L9.03115 18.584L9.26887 18.5364L9.07276 17.5558ZM9.06065 17.5524L8.6185 18.4493L8.69932 18.4891L8.78595 18.5139L9.06065 17.5524ZM8.99925 17.5221L9.4414 16.6252L9.3717 16.5908L9.29753 16.5676L8.99925 17.5221ZM8.9785 17.5264L8.19763 16.9017L8.10504 17.0175L8.05001 17.1551L8.9785 17.5264ZM8.97504 17.5351L8.04655 17.1637L7.98265 17.3235L7.97583 17.4954L8.97504 17.5351ZM8.96034 17.9052L7.96112 17.8655L7.95544 18.0087L7.99019 18.1477L8.96034 17.9052ZM8.96466 17.9225L7.99452 18.165L8.04504 18.3671L8.17203 18.5322L8.96466 17.9225ZM8.97331 17.9337L8.18068 18.5435L8.27179 18.6619L8.39355 18.7485L8.97331 17.9337ZM9.06325 17.9977L8.48349 18.8125L8.63085 18.9174L8.80561 18.964L9.06325 17.9977ZM9.07622 18.0012L8.81858 18.9674L9.10813 19.0446L9.39242 18.9499L9.07622 18.0012ZM9.0866 17.9977L9.4028 18.9464L9.54458 18.8992L9.66635 18.8125L9.0866 17.9977ZM9.17654 17.9337L9.75629 18.7485L9.88314 18.6583L9.97655 18.5337L9.17654 17.9337ZM9.18691 17.9199L9.98693 18.5199L10.1124 18.3526L10.1603 18.1489L9.18691 17.9199ZM9.19037 17.9052L10.1638 18.1342L10.195 18.0016L10.1896 17.8654L9.19037 17.9052ZM9.17567 17.5359L10.1749 17.4962L10.1708 17.3933L10.1458 17.2934L9.17567 17.5359ZM9.39014 17.4226L9.64781 16.4564L9.4453 16.4024L9.23816 16.4343L9.39014 17.4226ZM9.3789 17.4244L9.22692 16.436L9.07084 16.46L8.92976 16.5309L9.3789 17.4244ZM9.21891 17.5048L8.76977 16.6113L8.62577 16.6837L8.5118 16.7977L9.21891 17.5048ZM9.21026 17.5135L8.50316 16.8063L8.31535 16.9941L8.24549 17.2504L9.21026 17.5135ZM9.20767 17.523L8.24289 17.2599L8.20205 17.4097L8.20854 17.5648L9.20767 17.523ZM9.22324 17.8948L8.22411 17.9367L8.23157 18.1148L8.30017 18.2795L9.22324 17.8948ZM9.22756 17.9052L8.3045 18.2899L8.39398 18.5046L8.56907 18.6578L9.22756 17.9052ZM9.23448 17.9113L8.57599 18.6639L8.68414 18.7585L8.81456 18.8188L9.23448 17.9113ZM9.4083 17.9917L8.98838 18.8993L9.06847 18.9363L9.15381 18.9588L9.4083 17.9917ZM9.43338 17.9848L10.226 18.5945L10.3424 18.4431L10.3949 18.2595L9.43338 17.9848ZM9.43684 17.9727L10.3984 18.2474L10.4446 18.0855L10.4353 17.9174L9.43684 17.9727ZM9.40744 17.4417L10.4059 17.3864L10.3999 17.2783L10.371 17.174L9.40744 17.4417ZM8.77181 17.4244L8.25352 18.2796L8.28826 18.3006L8.32459 18.3188L8.77181 17.4244ZM8.74846 17.4296L7.91675 16.8744L7.86561 16.951L7.82933 17.0356L8.74846 17.4296ZM8.74327 17.4417L7.82414 17.0477L7.75456 17.2101L7.7448 17.3864L8.74327 17.4417ZM8.71387 17.9727L7.7154 17.9174L7.71233 17.9728L7.71541 18.0281L8.71387 17.9727ZM8.72857 17.9934L8.37745 18.9297L8.61224 19.0178L8.86079 18.9846L8.72857 17.9934ZM8.74154 17.9917L8.87376 18.9829L9.02395 18.9629L9.16146 18.8993L8.74154 17.9917ZM8.91537 17.9113L9.33528 18.8188L9.44533 18.7679L9.54002 18.6922L8.91537 17.9113ZM8.92401 17.9043L9.54867 18.6852L9.76788 18.5099L9.86381 18.2461L8.92401 17.9043ZM8.92747 17.8948L9.86727 18.2366L9.92054 18.0901L9.92669 17.9343L8.92747 17.8948ZM8.94218 17.523L9.94139 17.5625L9.94705 17.4193L9.91231 17.2804L8.94218 17.523ZM8.93958 17.5126L9.90971 17.27L9.84253 17.0013L9.64669 16.8055L8.93958 17.5126ZM8.93093 17.5039L9.63804 16.7968L9.52329 16.6821L9.37815 16.6095L8.93093 17.5039ZM8.98202 16.5365L8.97251 16.5382L9.3304 18.506L9.33992 18.5042L8.98202 16.5365ZM8.70931 16.6252L8.6479 16.6554L9.53221 18.4493L9.59361 18.419L8.70931 16.6252ZM8.89395 16.5718L8.87665 16.5752L9.26887 18.5364L9.28616 18.533L8.89395 16.5718ZM9.34746 16.5943L9.33536 16.5908L8.78595 18.5139L8.79806 18.5174L9.34746 16.5943ZM9.5028 16.6554L9.4414 16.6252L8.5571 18.419L8.6185 18.4493L9.5028 16.6554ZM9.29753 16.5676C9.18744 16.5332 9.00358 16.4961 8.78324 16.542C8.54133 16.5924 8.33817 16.726 8.19763 16.9017L9.75937 18.1511C9.62343 18.321 9.42604 18.4511 9.19105 18.5C8.97763 18.5445 8.80184 18.5081 8.70098 18.4766L9.29753 16.5676ZM8.05001 17.1551L8.04655 17.1637L9.90353 17.9064L9.90699 17.8978L8.05001 17.1551ZM7.97583 17.4954L7.96112 17.8655L9.95955 17.9449L9.97425 17.5748L7.97583 17.4954ZM7.99019 18.1477L7.99452 18.165L9.9348 17.68L9.93048 17.6627L7.99019 18.1477ZM8.17203 18.5322L8.18068 18.5435L9.76594 17.324L9.75729 17.3128L8.17203 18.5322ZM8.39355 18.7485L8.48349 18.8125L9.643 17.183L9.55306 17.119L8.39355 18.7485ZM8.80561 18.964L8.81858 18.9674L9.33386 17.035L9.32089 17.0315L8.80561 18.964ZM9.39242 18.9499L9.4028 18.9464L8.77039 17.0491L8.76001 17.0525L9.39242 18.9499ZM9.66635 18.8125L9.75629 18.7485L8.59678 17.119L8.50685 17.1829L9.66635 18.8125ZM9.97655 18.5337L9.98693 18.5199L8.3869 17.3199L8.37652 17.3338L9.97655 18.5337ZM10.1603 18.1489L10.1638 18.1342L8.21695 17.6762L8.21349 17.6909L10.1603 18.1489ZM10.1896 17.8654L10.1749 17.4962L8.17646 17.5757L8.19116 17.945L10.1896 17.8654ZM10.1458 17.2934C10.1164 17.1757 10.0503 17.0005 9.89729 16.8385C9.73217 16.6637 9.52194 16.5641 9.31303 16.532L9.00891 18.5087C8.80749 18.4778 8.60346 18.3814 8.44324 18.2117C8.29515 18.0549 8.23264 17.8869 8.20553 17.7785L10.1458 17.2934ZM9.23816 16.4343L9.22692 16.436L9.53088 18.4128L9.54212 18.411L9.23816 16.4343ZM8.92976 16.5309L8.76977 16.6113L9.66806 18.3983L9.82805 18.3178L8.92976 16.5309ZM8.5118 16.7977L8.50316 16.8063L9.91737 18.2206L9.92602 18.2119L8.5118 16.7977ZM8.24549 17.2504L8.24289 17.2599L10.1724 17.786L10.175 17.7765L8.24549 17.2504ZM8.20854 17.5648L8.22411 17.9367L10.2224 17.853L10.2068 17.4811L8.20854 17.5648ZM8.30017 18.2795L8.3045 18.2899L10.1506 17.5206L10.1463 17.5102L8.30017 18.2795ZM8.56907 18.6578L8.57599 18.6639L9.89296 17.1587L9.88605 17.1526L8.56907 18.6578ZM8.81456 18.8188L8.98838 18.8993L9.82822 17.0841L9.6544 17.0037L8.81456 18.8188ZM9.15381 18.9588C9.27906 18.9917 9.46991 19.0165 9.68869 18.9561C9.92144 18.8919 10.1034 18.7539 10.226 18.5945L8.64076 17.3751C8.75765 17.2231 8.9325 17.09 9.15689 17.0281C9.36731 16.9701 9.5485 16.9945 9.6628 17.0246L9.15381 18.9588ZM10.3949 18.2595L10.3984 18.2474L8.47531 17.698L8.47185 17.7101L10.3949 18.2595ZM10.4353 17.9174L10.4059 17.3864L8.40897 17.497L8.43837 18.028L10.4353 17.9174ZM10.371 17.174C10.2959 16.9037 10.0735 16.5699 9.64781 16.4564L9.13248 18.3889C8.95986 18.3429 8.79328 18.2473 8.66104 18.1018C8.53525 17.9635 8.47385 17.8171 8.44392 17.7093L10.371 17.174ZM9.2901 16.5692C9.06583 16.4333 8.79788 16.3893 8.54216 16.4461L8.97602 18.3985C8.729 18.4534 8.47017 18.4109 8.25352 18.2796L9.2901 16.5692ZM8.54216 16.4461C8.28638 16.5029 8.06231 16.6563 7.91675 16.8744L9.58017 17.9848C9.43956 18.1954 9.22311 18.3436 8.97602 18.3985L8.54216 16.4461ZM7.82933 17.0356L7.82414 17.0477L9.6624 17.8356L9.66759 17.8235L7.82933 17.0356ZM7.7448 17.3864L7.7154 17.9174L9.71234 18.028L9.74174 17.497L7.7448 17.3864ZM7.71541 18.0281C7.72377 18.1787 7.7685 18.3752 7.90195 18.5637C8.03789 18.7556 8.21667 18.8695 8.37745 18.9297L9.07969 17.0571C9.23124 17.1139 9.40297 17.2226 9.534 17.4076C9.66255 17.5891 9.70454 17.777 9.71233 17.9172L7.71541 18.0281ZM8.86079 18.9846L8.87376 18.9829L8.60932 17.0005L8.59635 17.0022L8.86079 18.9846ZM9.16146 18.8993L9.33528 18.8188L8.49545 17.0037L8.32162 17.0841L9.16146 18.8993ZM9.54002 18.6922L9.54867 18.6852L8.29936 17.1234L8.29071 17.1304L9.54002 18.6922ZM9.86381 18.2461L9.86727 18.2366L7.98768 17.5531L7.98422 17.5626L9.86381 18.2461ZM9.92669 17.9343L9.94139 17.5625L7.94296 17.4835L7.92825 17.8553L9.92669 17.9343ZM9.91231 17.2804L9.90971 17.27L7.96945 17.7552L7.97204 17.7655L9.91231 17.2804ZM9.64669 16.8055L9.63804 16.7968L8.22383 18.211L8.23247 18.2197L9.64669 16.8055ZM9.37815 16.6095L9.21903 16.53L8.32459 18.3188L8.48371 18.3984L9.37815 16.6095Z" fill="#4B65E1" mask="url(#path-1-inside-1_9033_40228)"/>
<path d="M12.972 0.75H12.9721C13.4425 0.749974 13.8952 0.929722 14.2375 1.25247C14.5773 1.57283 14.7828 2.01005 14.8128 2.47581L14.8164 2.60506V6.3563V7.51037L15.871 7.04166L16.3847 6.81335L16.3848 6.8133C16.4101 6.80208 16.4431 6.80003 16.4834 6.82336C16.5198 6.84445 16.5375 6.8724 16.5439 6.89577L16.5461 6.93781V13.8368V13.8371C16.5461 14.0842 16.4528 14.3223 16.2847 14.5035L16.8347 15.0134L16.2847 14.5035C16.1197 14.6814 15.8947 14.7916 15.6533 14.8131L15.5539 14.8164H1.72961H1.72937C1.48222 14.8165 1.24419 14.7232 1.06297 14.5551C0.88504 14.3901 0.774801 14.1651 0.753312 13.9237L0.75 13.8243V6.91842C0.75 6.89108 0.761453 6.85996 0.799395 6.83245C0.834548 6.80695 0.867697 6.80289 0.890702 6.80686L0.93302 6.82263L1.42457 7.04147L2.47961 7.51116V6.3563V2.59441L2.4796 2.59437C2.47958 2.12391 2.65933 1.67123 2.98207 1.32894C3.30244 0.989175 3.73967 0.783676 4.20543 0.753672L4.33466 0.75H12.972ZM2.70921 7.12511V7.61249L3.15457 7.81045L8.34339 10.1169L8.64803 10.2523L8.95266 10.1169L14.1415 7.81045L14.5868 7.61249V7.12511V2.59441C14.5868 2.16614 14.4167 1.75541 14.1139 1.45257L13.6066 1.95984L14.1139 1.45257C13.811 1.14974 13.4003 0.979605 12.972 0.979605H4.32401C3.89574 0.979605 3.48501 1.14974 3.18217 1.45257C2.87934 1.7554 2.70921 2.16613 2.70921 2.59441V7.12511ZM8.64719 5.07401C8.64727 5.07401 8.64734 5.07401 8.64742 5.07401C8.6766 5.0741 8.70465 5.0853 8.72588 5.10534C8.74715 5.12542 8.75996 5.15288 8.76167 5.18209C8.76339 5.2113 8.75388 5.24006 8.7351 5.2625C8.71885 5.28192 8.69671 5.29533 8.67221 5.30083L8.62561 5.30362L6.91925 5.30362C6.91918 5.30362 6.9191 5.30362 6.91903 5.30362C6.88985 5.30353 6.86179 5.29233 6.84057 5.27229C6.81929 5.25221 6.80649 5.22475 6.80477 5.19554C6.80306 5.16633 6.81256 5.13757 6.83134 5.11513C6.8476 5.09571 6.86974 5.0823 6.89423 5.0768L6.94084 5.07401L8.64719 5.07401Z" stroke="#4B65E1" stroke-width="1.5"/>
</svg>
