<svg width="24" height="24" viewBox="0 0 24 24" fill="none" xmlns="http://www.w3.org/2000/svg">
<g clip-path="url(#clip0_7204_60931)">
<mask id="mask0_7204_60931" style="mask-type:luminance" maskUnits="userSpaceOnUse" x="0" y="0" width="24" height="24">
<path d="M24 0H0V24H24V0Z" fill="white"/>
</mask>
<g mask="url(#mask0_7204_60931)">
<path d="M5 18.7693V17.7693H6.6155V9.84625C6.6155 8.53975 7.02892 7.39067 7.85575 6.399C8.68275 5.40733 9.73083 4.78975 11 4.54625V4C11 3.72217 11.097 3.48608 11.291 3.29175C11.485 3.09725 11.7206 3 11.9977 3C12.2749 3 12.5113 3.09725 12.7067 3.29175C12.9022 3.48608 13 3.72217 13 4V4.54625C14.2692 4.78975 15.3173 5.40733 16.1443 6.399C16.9711 7.39067 17.3845 8.53975 17.3845 9.84625V17.7693H19V18.7693H5ZM11.9968 21.3848C11.5516 21.3848 11.1717 21.2266 10.857 20.9103C10.5422 20.5939 10.3848 20.2137 10.3848 19.7695H13.6158C13.6158 20.217 13.4572 20.5981 13.14 20.9128C12.823 21.2274 12.4419 21.3848 11.9968 21.3848ZM7.61523 17.7692H16.3842V9.84618C16.3842 8.63068 15.9573 7.59601 15.1035 6.74218C14.2497 5.88834 13.2151 5.46143 11.9997 5.46143C10.7844 5.46143 9.74982 5.88834 8.89599 6.74218C8.04215 7.59601 7.61524 8.63067 7.61524 9.84618L7.61523 17.7692Z" fill="#0F1218"/>
<path fill-rule="evenodd" clip-rule="evenodd" d="M15 7C15 5.34315 16.3432 4 18 4C19.6568 4 21 5.34315 21 7C21 8.65685 19.6568 10 18 10C16.3432 10 15 8.65685 15 7Z" fill="#FC4850"/>
<path fill-rule="evenodd" clip-rule="evenodd" d="M14.4645 3.46447C13.4882 4.44078 13 5.61929 13 7C13 8.38071 13.4882 9.55922 14.4645 10.5355C15.4408 11.5118 16.6193 12 18 12C19.3807 12 20.5592 11.5118 21.5355 10.5355C22.5118 9.55922 23 8.38071 23 7C23 5.61929 22.5118 4.44078 21.5355 3.46447C20.5592 2.48816 19.3807 2 18 2C16.6193 2 15.4408 2.48816 14.4645 3.46447ZM18 4C16.3432 4 15 5.34315 15 7C15 8.65685 16.3432 10 18 10C19.6568 10 21 8.65685 21 7C21 5.34315 19.6568 4 18 4Z" fill="white"/>
</g>
</g>
<defs>
<clipPath id="clip0_7204_60931">
<rect width="24" height="24" fill="white"/>
</clipPath>
</defs>
</svg>
