<svg width="14" height="14" viewBox="0 0 14 14" fill="none" xmlns="http://www.w3.org/2000/svg">
<path d="M7.00016 13.6673C6.07794 13.6673 5.21127 13.4923 4.40016 13.1423C3.58905 12.7923 2.8835 12.3173 2.2835 11.7173C1.6835 11.1173 1.2085 10.4118 0.858496 9.60065C0.508496 8.78954 0.333496 7.92287 0.333496 7.00065C0.333496 6.07843 0.508496 5.21176 0.858496 4.40065C1.2085 3.58954 1.6835 2.88398 2.2835 2.28398C2.8835 1.68398 3.58905 1.20898 4.40016 0.858984C5.21127 0.508984 6.07794 0.333984 7.00016 0.333984C7.92239 0.333984 8.78905 0.508984 9.60016 0.858984C10.4113 1.20898 11.1168 1.68398 11.7168 2.28398C12.3168 2.88398 12.7918 3.58954 13.1418 4.40065C13.4918 5.21176 13.6668 6.07843 13.6668 7.00065C13.6668 7.30065 13.6502 7.5951 13.6168 7.88398C13.5835 8.17287 13.5279 8.45621 13.4502 8.73398C13.2946 8.55621 13.1141 8.40621 12.9085 8.28399C12.7029 8.16176 12.4779 8.07843 12.2335 8.03399C12.2668 7.86732 12.2918 7.69787 12.3085 7.52565C12.3252 7.35343 12.3335 7.17843 12.3335 7.00065C12.3335 5.51176 11.8168 4.25065 10.7835 3.21732C9.75016 2.18398 8.48905 1.66732 7.00016 1.66732C5.51127 1.66732 4.25016 2.18398 3.21683 3.21732C2.1835 4.25065 1.66683 5.51176 1.66683 7.00065C1.66683 8.48954 2.1835 9.75065 3.21683 10.784C4.25016 11.8173 5.51127 12.334 7.00016 12.334C7.56683 12.334 8.1085 12.2507 8.62516 12.084C9.14183 11.9173 9.61683 11.684 10.0502 11.384C10.1835 11.5729 10.3474 11.7395 10.5418 11.884C10.7363 12.0284 10.9446 12.1395 11.1668 12.2173C10.6002 12.6729 9.96405 13.0284 9.2585 13.284C8.55294 13.5395 7.80016 13.6673 7.00016 13.6673ZM11.8335 11.0007C11.6002 11.0007 11.4029 10.9201 11.2418 10.759C11.0807 10.5979 11.0002 10.4007 11.0002 10.1673C11.0002 9.93398 11.0807 9.73676 11.2418 9.57565C11.4029 9.41454 11.6002 9.33398 11.8335 9.33398C12.0668 9.33398 12.2641 9.41454 12.4252 9.57565C12.5863 9.73676 12.6668 9.93398 12.6668 10.1673C12.6668 10.4007 12.5863 10.5979 12.4252 10.759C12.2641 10.9201 12.0668 11.0007 11.8335 11.0007ZM9.20016 10.134L6.3335 7.26732V3.66732H7.66683V6.73399L10.1335 9.20065L9.20016 10.134Z" fill="#FB830C"/>
</svg>
