<svg width="12" height="12" viewBox="0 0 12 12" fill="none" xmlns="http://www.w3.org/2000/svg">
<path fill-rule="evenodd" clip-rule="evenodd" d="M5.16667 0C2.58934 0 0.5 2.08934 0.5 4.66667C0.5 7.244 2.58934 9.33333 5.16667 9.33333C6.21489 9.33333 7.18239 8.98773 7.96145 8.40426L10.6953 11.1381C10.9557 11.3985 11.3778 11.3985 11.6381 11.1381C11.8985 10.8778 11.8985 10.4557 11.6381 10.1953L8.90426 7.46145C9.48773 6.68239 9.83333 5.71489 9.83333 4.66667C9.83333 2.08934 7.744 0 5.16667 0ZM1.83333 4.66667C1.83333 2.82572 3.32572 1.33333 5.16667 1.33333C7.00762 1.33333 8.5 2.82572 8.5 4.66667C8.5 6.50762 7.00762 8 5.16667 8C3.32572 8 1.83333 6.50762 1.83333 4.66667Z" fill="#6E7174"/>
</svg>
